<svg height="2.3125em" viewBox="0 0 94 37" width="5.875em" class="logo"><path d="m85.0647735 5.77412731c6.5851574 0 9.6885074 3.76078029 8.7802098 8.88911709l-2.4221268 13.75154c-1.135372 6.2679671-4.6550251 8.5852156-10.8238794 8.5852156h-.6433775c-5.4876311 0-9.04513-2.7731006-8.477444-7.2936345.0438246-.2419392.2544796-.4178645.500356-.4178645h4.9872752c-.3027659 1.7474333.9461433 2.963039 3.5953445 2.963039 3.3682702 0 4.7685623-1.5574948 5.1470196-3.7227926l.5298403-2.8490759c-1.4381379 1.1396303-2.9898129 1.7854209-6.0174714 1.7854209-5.2227111 0-7.9097581-3.6088296-7.0393062-8.5852156l.8326061-4.8244353c.9461433-5.43223821 4.0873391-8.28131419 11.0509538-8.28131419zm-68.3818565-2.77980432c.4271731 0 .7734653.34629223.7734653.77346535 0 .06301234-.0077001.12578858-.022929.18693294l-.5780306 2.32081687c3.4736063 1.14145229 5.1628194 4.12319985 4.5149836 7.81789105l-1.3624463 7.7494866c-.8390666 4.7413506-3.5664724 6.9469339-7.8050482 7.5842428l-.5062747 2.0300341c-.0858388.3446429-.3953645.5865324-.7505363.5865324h-4.5279139c-.42717312 0-.77346535-.3462922-.77346535-.7734654 0-.0630123.00770009-.1257885.02292906-.1869329l.40620132-1.6291658c-4.16149887-.6819158-6.49574479-3.291412-6.0105928-6.927467l.07569146-.5318275c.52984025-4.1406571 3.33042443-6.5718686 9.87773611-6.5718686 2.4978183 0 4.3522592.3798768 5.222711.8737167l.3406116-2.013347c.416303-2.2032855-.567686-3.684805-3.3682702-3.684805-2.34643536 0-4.0494933.7977413-4.39010489 2.8110883h-5.44978543c.6465971-4.61147406 3.12928702-7.10352179 8.46621172-7.55900483l.5664063-2.26979068c.0858387-.3446429.3953644-.5865324.7505362-.5865324zm16.5215177-2.99432299c.4271731 0 .7734653.34629223.7734653.77346535 0 .04453055-.0038456.08897792-.0114939.13284673l-1.1665887 6.69122385c1.4381378-1.06365503 3.0276586-1.82340862 5.9417799-1.82340862 5.6768599 0 7.9097581 3.79876797 7.1149977 8.31930189l-1.3246006 7.4455852c-.9461433 5.4322382-4.0873391 8.0533881-11.0887995 8.0533881-6.5851574 0-9.612816-3.684805-8.7045184-8.7371664l3.5584897-20.21585825c.0650867-.3697587.3863106-.63937785.761754-.63937785zm27.9796818 5.77412731c6.7365403 0 9.7263531 3.68480493 8.8559013 8.62320329l-.8704518 4.862423h-14.5706069l-.3027658 1.8234086c-.3406116 2.013347.2649201 3.8367557 3.8981104 3.8367557 3.1411957 0 4.655025-.9117043 4.9956366-2.8110883.022002-.1104228.1189245-.1899384.2315179-.1899384h4.5257688c.3655697 0 .6619225.2963528.6619225.6619225l-.0018199.0490504-.0054496.0487807c-.7947604 4.4825462-3.9359561 6.9137577-10.8617251 6.9137577-6.8500775 0-9.8020446-3.7607803-8.9315928-8.5852156l1.2110634-7.0277208c1.0218348-5.47022585 4.1630306-8.20533879 11.164491-8.20533879zm-50.6375896 13.25770019c-2.98981282 0-4.31441344.9117043-4.69287076 3.0390144l-.07569146.3798768c-.41630306 2.12731.9461433 3.077002 3.63319028 3.077002 2.76273844 0 4.42795064-1.2915811 4.76856224-3.1149897l.0378457-.3418891c.4163031-2.1273101-.5676859-3.0390144-3.671036-3.0390144zm25.9621723-8.3193018c-3.1033501 0-4.5414879 1.5954825-4.957791 3.9507187l-1.0596805 5.9640657c-.416303 2.3552361.4919946 3.9507186 3.5953446 3.9507186 3.0655043 0 4.5036421-1.5954825 4.9199452-3.9507186l1.0596805-5.9640657c.416303-2.3552362-.4919945-3.9507187-3.5574988-3.9507187zm48.026234.1519507c-3.0655043 0-4.5036421 1.5574949-4.9199452 3.8747433l-.7190689 4.2166325c-.416303 2.2792607.4541488 3.8747433 3.5196531 3.8747433 3.10335 0 4.5414879-1.5954826 4.9577909-3.8747433l.7190689-4.2166325c.4163031-2.3172484-.4919945-3.8747433-3.5574988-3.8747433zm-23.8049655-.4178645c-3.3682701 0-4.8442537 1.5954826-5.2605568 3.912731l-.1892286 1.1776181h9.04513l.2270744-1.2156058c.416303-2.4312115-.567686-3.8747433-3.822419-3.8747433z" fill="#fff" fill-rule="evenodd"></path></svg>